<?xml version="1.0" encoding="utf-8"?>
<!-- Generator: Adobe Illustrator 22.0.1, SVG Export Plug-In . SVG Version: 6.00 Build 0)  -->
<svg version="1.1" id="Layer_1" xmlns="http://www.w3.org/2000/svg" xmlns:xlink="http://www.w3.org/1999/xlink" x="0px" y="0px"
	 viewBox="0 0 198 134" style="enable-background:new 0 0 198 134;" xml:space="preserve">
<style type="text/css">
	.st0{fill:none;}
	.st1{fill:none;stroke:#1A1A1A;stroke-width:2.4;stroke-linecap:round;stroke-linejoin:round;stroke-miterlimit:22.9256;}
</style>
<rect id="Rectangle_85" class="st0" width="198" height="134"/>
<g>
	<path class="st1" d="M80,63.2l8.3-4.4L84.5,50c1.3-1.2,2.4-2.6,3.3-4.1l9.3,1.9l2.7-9l-8.8-3.6c0-1.8-0.1-3.5-0.5-5.2l7.9-5.2
		L94,16.6l-8.7,3.7c-1.2-1.3-2.6-2.4-4.1-3.3l1.9-9.3l-9-2.7l-3.6,8.8c-1.8,0-3.5,0.1-5.2,0.5l-5.2-7.9l-8.3,4.4l3.7,8.7
		c-1.3,1.2-2.4,2.6-3.3,4.1L43,21.7l-2.7,9l8.8,3.6c0,1.8,0.1,3.5,0.5,5.2l-7.9,5.2l4.4,8.3l8.7-3.7c1.2,1.3,2.6,2.4,4.1,3.3
		L57,61.9l9,2.7l3.6-8.8c1.8,0,3.5-0.1,5.2-0.5L80,63.2L80,63.2z"/>
	<path class="st1" d="M72.4,27c-4.8-1.4-8.7,0.7-10.2,5.4c-1.4,4.8,0.7,8.7,5.4,10.2c4.8,1.4,8.7-0.7,10.2-5.4
		C79.3,32.4,77.2,28.4,72.4,27L72.4,27z"/>
	<path class="st1" d="M133.1,126.2l10.8-5.8l-4.8-11.4c1.6-1.6,3.1-3.3,4.3-5.3l12.1,2.5l3.5-11.7l-11.5-4.6
		c0.1-2.3-0.2-4.6-0.7-6.8l10.3-6.8l-5.8-10.8l-11.4,4.8c-1.6-1.6-3.3-3.1-5.3-4.3l2.5-12.1l-11.7-3.5l-4.6,11.5
		c-2.3-0.1-4.6,0.2-6.8,0.7L107.3,52l-10.8,5.8l4.8,11.4c-1.6,1.6-3.1,3.3-4.3,5.3L84.9,72l-3.5,11.7l11.5,4.6
		c-0.1,2.3,0.2,4.6,0.7,6.8L83.2,102l5.8,10.8l11.4-4.8c1.6,1.6,3.3,3.1,5.3,4.3l-2.5,12.1l11.7,3.5l4.6-11.5
		c2.3,0.1,4.6-0.2,6.8-0.7L133.1,126.2L133.1,126.2z"/>
	<path class="st1" d="M124.4,75.3c-7.6-2.3-15.7,2-18,9.6c-2.3,7.6,2,15.7,9.6,18c7.6,2.3,15.7-2,18-9.6
		C136.4,85.6,132.1,77.6,124.4,75.3L124.4,75.3z"/>
</g>
</svg>
