<?xml version="1.0" encoding="utf-8"?>
<!-- Generator: Adobe Illustrator 22.0.1, SVG Export Plug-In . SVG Version: 6.00 Build 0)  -->
<svg version="1.1" id="Layer_1" xmlns="http://www.w3.org/2000/svg" xmlns:xlink="http://www.w3.org/1999/xlink" x="0px" y="0px"
	 viewBox="0 0 130 50" style="enable-background:new 0 0 130 50;" xml:space="preserve">
<style type="text/css">
	.st0{fill:#031574;}
</style>
<g>
	<g>
		<path class="st0" d="M85,25.9c0.1-0.5,0.3-0.9,0.4-1.4c0.6-2.3,1.2-4.5,1.9-6.8c0.1-0.4,0.1-0.5-0.3-0.8c-0.1-0.1-0.1-0.2-0.1-0.4
			c1.5,0,2.9,0,4.4,0c-0.1,0.2-0.1,0.4-0.2,0.5c-0.5,0.6-0.8,1.4-1,2.1c-1.1,3.2-2.1,6.5-3.2,9.7c0,0.1-0.1,0.2-0.1,0.4
			c0,0.2,0,0.4,0.2,0.5c0.3,0.1,0.3,0.3,0.2,0.5c-1.7,0-3.3,0-5,0c0-0.2-0.1-0.3,0.2-0.5c0.2-0.1,0.2-0.4,0.2-0.6
			c-0.1-0.4-0.2-0.8-0.3-1.1c-0.7-2.8-1.4-5.5-2-8.3c0-0.1,0-0.1-0.1-0.2c-0.1,0.3-0.1,0.6-0.2,0.8c-0.7,2.9-1.4,5.7-2.2,8.6
			c0,0.1-0.1,0.2-0.1,0.4c0,0.2,0,0.4,0.2,0.5c0.2,0.1,0.2,0.3,0.2,0.5c-1.7,0-3.5,0-5.2,0c0-0.2-0.1-0.4,0.2-0.5
			c0.2-0.1,0.3-0.4,0.2-0.6c-0.2-0.6-0.4-1.2-0.5-1.8c-1-3.2-2-6.4-3-9.6c-0.1-0.3-0.3-0.6-0.5-0.8c-0.1-0.1-0.1-0.2-0.1-0.4
			c1.6,0,3.2,0,4.7,0c0,0.2,0.1,0.4-0.2,0.4c-0.2,0.1-0.3,0.3-0.2,0.6c0.1,0.4,0.2,0.8,0.3,1.2c0.6,2.3,1.3,4.6,1.9,6.9
			c0,0.1,0,0.1,0.1,0.2c0-0.1,0.1-0.2,0.1-0.2c0.7-2.6,1.4-5.3,2.1-7.9c0.1-0.4,0.1-0.7-0.3-0.9c-0.1,0-0.1-0.2-0.1-0.4
			c1.9,0,3.8,0,5.7,0c0.1,0.2,0,0.3-0.2,0.5c-0.2,0.1-0.3,0.4-0.2,0.6c0.3,1.2,0.6,2.4,0.9,3.6C84.2,22.8,84.6,24.3,85,25.9
			C85,25.9,85,25.9,85,25.9C85,25.9,85,25.9,85,25.9z"/>
		<path class="st0" d="M52.5,30.3c-1.8,0-3.5,0-5.2,0c0-0.2,0-0.4,0.2-0.5c0.2-0.1,0.2-0.3,0.2-0.5c0-0.1-0.1-0.2-0.1-0.3
			c-0.7-1.2-1.5-2.5-2.2-3.7c0-0.1-0.1-0.1-0.2-0.1c-0.8,0-1.6,0-2.4,0c0,0,0,0-0.1,0c0,0.1,0,0.2,0,0.2c0,1.2,0,2.4,0,3.6
			c0,0.4,0.1,0.7,0.5,0.8c0.1,0,0.1,0.2,0.2,0.4c-1.7,0-3.3,0-4.9,0c-0.1-0.2,0-0.4,0.2-0.4c0.2,0,0.3-0.2,0.4-0.4
			c0-0.1,0-0.3,0-0.4c0-1.9,0-3.9,0-5.8c0-0.3,0-0.6,0.2-0.9c0.1-0.1,0.1-0.2,0.1-0.3c-0.3-0.1-0.6-0.2-1-0.3
			c-0.4-0.1-0.7-0.2-1.1-0.3c-0.1,0-0.2,0-0.3,0c-0.4,0.2-0.8,0.1-1-0.3c-0.2-0.3-0.1-0.8,0.3-1c0.3-0.2,0.7-0.1,1,0.3
			c0,0.1,0.1,0.1,0.1,0.2c0,0,0.1,0,0.1,0c0.7,0.2,1.4,0.4,2.1,0.6c0.5-1.3,0.9-2.5,0.9-3.9c-0.8,0-1.5,0-2.3,0
			c-0.1,0-0.1,0.1-0.2,0.1c-0.3,0.3-0.7,0.3-1,0c-0.3-0.3-0.3-0.7,0-1c0.3-0.3,0.7-0.3,1,0c0.1,0.1,0.2,0.1,0.3,0.1
			c0.6,0,1.3,0,1.9,0c2.4,0,4.8,0,7.2,0c0.9,0,1.8,0.1,2.7,0.5c1.8,0.8,2.5,2.4,2.4,4.1c-0.1,1.1-0.4,2.1-1.3,2.8
			c-0.5,0.5-1.1,0.8-1.8,1.1c-0.1,0-0.2,0.1-0.3,0.1c0.1,0.2,0.2,0.4,0.3,0.6c0.6,1,1.2,2,1.8,3.1c0.3,0.5,0.6,0.9,1.1,1.1
			C52.4,30,52.4,30.2,52.5,30.3z M42.5,19.4c0,1.1,0,2.1,0,3.1c0,0,0.1,0,0.1,0c1.2,0,2.4,0,3.6,0c0.6,0,1.1-0.1,1.7-0.4
			c0.9-0.5,0.9-1.8,0-2.3c-0.4-0.2-0.8-0.3-1.2-0.3c-1.3,0-2.5,0-3.8,0C42.8,19.3,42.7,19.4,42.5,19.4z"/>
		<path class="st0" d="M55.5,16.6c0.2,0,0.3,0,0.4,0c3.7,0,7.5,0,11.2,0c0.5,0,0.6-0.1,0.8-0.6c0-0.1,0.2-0.1,0.3-0.2
			c0,1.6,0,3.1,0,4.6c-0.2,0.1-0.3,0-0.4-0.2c-0.1-0.3-0.2-0.4-0.5-0.4c-0.1,0-0.2,0-0.2,0c-2.3,0-4.7,0-7,0c-0.1,0-0.2,0-0.3,0
			c0,0.6,0,1.3,0,1.9c0.1,0,0.2,0,0.3,0c1.4,0,2.8,0,4.3,0c0.3,0,0.5-0.1,0.6-0.4c0.1-0.2,0.2-0.3,0.4-0.2c0,1.4,0,2.8,0,4.2
			c-0.2,0.1-0.3,0-0.4-0.2c-0.1-0.3-0.3-0.4-0.5-0.4c-0.1,0-0.2,0-0.2,0c-1.4,0-2.7,0-4.1,0c-0.1,0-0.1,0-0.2,0c0,0.8,0,1.5,0,2.3
			c0.1,0,0.2,0,0.2,0c2.4,0,4.7,0,7.1,0c0.5,0,0.6-0.1,0.8-0.5c0-0.1,0.2-0.1,0.3-0.2c0,1.6,0,3.1,0,4.6c-0.1,0-0.2,0-0.3,0
			c0,0,0-0.1,0-0.1c-0.1-0.4-0.3-0.5-0.7-0.5c-2.8,0-5.7,0-8.5,0c-1,0-2.1,0-3.1,0c-0.1-0.3-0.1-0.3,0.2-0.4
			c0.2-0.1,0.3-0.2,0.4-0.5c0-0.1,0-0.2,0-0.3c0-3.8,0-7.6,0-11.3c0-0.4-0.1-0.7-0.5-0.9C55.6,16.9,55.6,16.7,55.5,16.6z"/>
		<path class="st0" d="M117.3,30.4c-0.1-0.2,0-0.4,0.2-0.5c0.2-0.1,0.3-0.2,0.4-0.5c0-0.1,0-0.2,0-0.3c0-3.8,0-7.6,0-11.3
			c0-0.4-0.1-0.7-0.5-0.8c-0.1,0-0.1-0.2-0.2-0.4c0.2,0,0.3,0,0.4,0c3.7,0,7.5,0,11.2,0c0.6,0,0.6,0,0.8-0.6c0-0.1,0.2-0.1,0.3-0.2
			c0,1.6,0,3.1,0,4.6c-0.2,0.1-0.3,0.1-0.4-0.2c-0.1-0.3-0.3-0.4-0.5-0.4c-0.1,0-0.1,0-0.2,0c-2.4,0-4.7,0-7.1,0
			c-0.2,0-0.3,0.1-0.3,0.3c0,0.5,0,1,0,1.5c0,0.2,0.1,0.2,0.2,0.2c1.4,0,2.9,0,4.3,0c0.3,0,0.5-0.1,0.6-0.4c0.1-0.2,0.2-0.3,0.4-0.2
			c0,1.4,0,2.8,0,4.2c-0.2,0.1-0.3,0.1-0.4-0.2c-0.1-0.2-0.2-0.4-0.5-0.4c-0.1,0-0.2,0-0.2,0c-1.4,0-2.8,0-4.1,0
			c-0.2,0-0.3,0.1-0.3,0.3c0,0.6,0,1.2,0,1.9c0,0.1,0,0.2,0,0.2c0.1,0,0.2,0,0.3,0c2.3,0,4.7,0,7,0c0.4,0,0.7-0.1,0.8-0.5
			c0-0.1,0.2-0.1,0.3-0.2c0,1.6,0,3.1,0,4.6c-0.2,0-0.3,0-0.4-0.2c-0.1-0.3-0.3-0.4-0.6-0.4c-3.8,0-7.6,0-11.4,0
			C117.5,30.4,117.4,30.4,117.3,30.4z"/>
		<path class="st0" d="M100.5,29.5c0.6-1.4,1.2-2.8,1.8-4.2c0.1,0.1,0.2,0.1,0.3,0.2c-0.2,0.4,0.1,0.7,0.4,1c0.7,0.5,1.4,0.8,2.2,1
			c1,0.3,2,0.4,3,0.5c0.7,0,1.4-0.1,2-0.4c0.6-0.3,1-0.7,1-1.4c0-0.4-0.2-0.7-0.5-1c-0.5-0.3-1-0.4-1.5-0.5
			c-1.2-0.1-2.5-0.3-3.7-0.4c-0.8-0.1-1.5-0.2-2.2-0.5c-1.4-0.6-2.1-1.7-2-3.3c0.1-1.6,1-2.7,2.4-3.3c0.9-0.5,1.9-0.7,2.9-0.8
			c1.6-0.2,3.1,0.1,4.6,0.5c0.5,0.2,1.1,0.3,1.6,0.5c0.1,0,0.2,0,0.3,0.1c0.4,0.1,0.6,0,0.9-0.3c0.1,0,0.2,0.1,0.3,0.1
			c-0.5,1.2-1,2.4-1.6,3.7c-0.2,0-0.3-0.1-0.3-0.3c0-0.3-0.2-0.6-0.5-0.8c-0.5-0.4-1.1-0.6-1.7-0.7c-1.3-0.3-2.7-0.3-4,0
			c-0.4,0.1-0.7,0.3-1.1,0.4c-0.2,0.1-0.3,0.3-0.4,0.4c-0.2,0.4-0.1,0.7,0.2,0.9c0.5,0.3,1,0.4,1.5,0.5c0.9,0.1,1.8,0.2,2.7,0.2
			c1.1,0.1,2.2,0.2,3.2,0.6c1,0.4,1.8,1.1,2.2,2.2c0.5,1.8,0,3.7-1.8,4.8c-1,0.6-2.1,1-3.2,1.1c-2.6,0.3-5.2-0.1-7.7-1
			c-0.1,0-0.1,0-0.2-0.1c-0.2-0.1-0.4-0.1-0.5,0.1C100.8,29.7,100.6,29.7,100.5,29.5z"/>
		<path class="st0" d="M12.6,17.4c0.1,0.4,0.1,0.8,0.2,1.2c0.1,0.7,0.2,1.4,0.3,2c0,0.1,0,0.1,0,0.2c-0.1,0.3-0.2,0.5-0.4,0.8
			c-0.1,0-0.2-0.1-0.3-0.1c0.1-0.5-0.2-0.8-0.6-1c-0.7-0.4-1.4-0.6-2.2-0.7c-1.2-0.2-2.4-0.1-3.5,0.4C4.8,20.7,4,21.6,3.8,23
			c-0.1,1.9,0.8,3.3,2.7,3.7C8.5,27.2,10.3,27,12,26c0.3-0.2,0.5-0.4,0.4-0.8c-0.1-0.2,0.1-0.2,0.3-0.3c0.8,1.4,1.6,2.8,2.5,4.3
			c-0.2,0.1-0.3,0.2-0.5,0C14.4,29,14.2,29,14,29.1c-0.6,0.3-1.3,0.6-1.9,0.8c-2.3,0.7-4.7,0.8-7.1,0.1c-1.4-0.4-2.6-1.1-3.6-2.3
			c-0.8-1-1.2-2.1-1.4-3.4C-0.1,23.2,0,22,0.5,20.8c0.7-1.9,2.1-3.1,3.9-3.8c1.7-0.6,3.4-0.8,5.1-0.6c0.9,0.1,1.7,0.3,2.6,0.5
			c0.1-0.3,0.2-0.3,0.6-0.3c0.6,0,1.3,0,1.9,0c0.1,0,0.2-0.1,0.3-0.1c0.3-0.2,0.7-0.2,1,0c0.3,0.3,0.3,0.7,0,1c-0.3,0.3-0.7,0.3-1,0
			c-0.1-0.1-0.2-0.1-0.4-0.1C14,17.4,13.3,17.4,12.6,17.4z"/>
		<path class="st0" d="M26.5,21.8c-2.7,0-4.9-2.2-4.9-4.9c0-2.7,2.2-4.9,4.9-4.9c2.7,0,4.8,2.2,4.8,4.9
			C31.3,19.7,29.1,21.8,26.5,21.8z M26.5,18.8c1,0,1.9-0.8,1.9-1.9c0-1-0.8-1.9-1.9-1.9c-1,0-1.9,0.9-1.9,1.9
			C24.6,18,25.4,18.8,26.5,18.8z"/>
		<path class="st0" d="M97.7,16.6c0.1,0.2,0,0.4-0.2,0.4c-0.2,0.1-0.4,0.3-0.4,0.5c0,0.1,0,0.2,0,0.3c0,3.7,0,7.5,0,11.2
			c0,0.1,0,0.3,0,0.4c0,0.2,0.2,0.4,0.4,0.4c0.3,0.1,0.3,0.2,0.2,0.5c-1.6,0-3.2,0-4.8,0c0-0.2-0.1-0.4,0.2-0.4
			c0.2-0.1,0.3-0.2,0.4-0.4c0-0.1,0-0.2,0-0.3c0-3.8,0-7.6,0-11.3c0-0.4-0.1-0.7-0.5-0.8c-0.1,0-0.1-0.2-0.1-0.4
			C94.5,16.6,96.1,16.6,97.7,16.6z"/>
		<path class="st0" d="M76.7,37.6c0.3-0.1,0.2-0.3,0.2-0.5c0-1,0-2.1,0-3.1c0-0.2,0.1-0.5-0.2-0.6c0.1,0,0.1,0,0.2,0
			c0.8,0,1.5,0,2.3,0c1.7,0,2.2,1.3,2.1,2.5c-0.1,0.7-0.4,1.4-1.1,1.6c-0.3,0.1-0.6,0.2-0.9,0.2c-0.8,0-1.6,0-2.4,0
			C76.9,37.6,76.8,37.6,76.7,37.6C76.8,37.6,76.7,37.6,76.7,37.6z M78.1,36.7c0.4,0,0.9,0,1.3-0.1c0.4-0.1,0.7-0.4,0.8-0.8
			c0.1-0.5,0-0.9-0.4-1.3c0,0-0.1-0.1-0.2-0.1c-0.5-0.2-1-0.1-1.5-0.1C78.1,35.1,78.1,35.9,78.1,36.7z"/>
		<path class="st0" d="M51.2,36.1c0,0.4,0,0.9,0,1.3c0,0.1,0.1,0.2,0.2,0.3c-0.5,0-1,0-1.6,0c0.3-0.2,0.3-0.5,0.3-0.7c0-1,0-2,0-3
			c0-0.2,0-0.4-0.3-0.5c0.1,0,0.1,0,0.2,0c0.9,0,1.8,0,2.8,0c0.6,0,1,0.3,1.2,0.8c0.2,0.5,0.1,1.1-0.3,1.5c-0.3,0.3-0.6,0.3-0.9,0.4
			c-0.4,0-0.9,0-1.3,0C51.3,36.1,51.3,36.1,51.2,36.1z M51.2,35.2c0.4,0,0.8,0,1.2,0c0.1,0,0.2,0,0.3-0.1c0.2-0.1,0.2-0.2,0.2-0.4
			c0-0.2-0.1-0.3-0.3-0.4c-0.5-0.1-1-0.1-1.5-0.1C51.2,34.5,51.2,34.8,51.2,35.2z"/>
		<path class="st0" d="M71.4,33.1c0.1,0.2,0.3,0.2,0.5,0.2c1.1,0,2.1,0,3.2,0c0.2,0,0.4,0,0.5-0.2c0,0.5,0,1,0,1.5
			c-0.2-0.3-0.4-0.2-0.6-0.2c-0.3,0-0.6,0-0.9,0c0,0.1,0,0.1,0,0.1c0,0.9,0,1.8,0,2.7c0,0.1,0.1,0.2,0.1,0.4c-0.5,0-1,0-1.5,0
			c0.3-0.3,0.2-0.6,0.2-1c0-0.7,0-1.3,0-2c0-0.1,0-0.2,0-0.3c-0.4,0-0.8,0-1.2,0c-0.1,0-0.2,0.1-0.3,0.2
			C71.4,34.1,71.4,33.6,71.4,33.1z"/>
		<path class="st0" d="M59,34.6c-0.1-0.2-0.3-0.2-0.5-0.2c-0.3,0-0.7,0-1,0c0,0.1,0,0.2,0,0.2c0,0.8,0,1.6,0,2.4
			c0,0.2-0.1,0.4,0.2,0.6c-0.5,0-1,0-1.6,0c0.3-0.2,0.3-0.4,0.3-0.7c0-0.8,0-1.5,0-2.3c0-0.1,0-0.2,0-0.3c-0.4,0-0.9,0-1.3,0
			c-0.1,0-0.2,0.1-0.3,0.2c0-0.5,0-1,0-1.5c0.2,0.4,0.5,0.2,0.8,0.2c0.9,0,1.8,0,2.7,0c0.2,0,0.5,0.1,0.6-0.2
			C59.1,33.6,59.1,34.1,59,34.6C59.1,34.6,59,34.6,59,34.6z"/>
		<path class="st0" d="M67.1,37.6c0.2-0.1,0.2-0.3,0.2-0.5c0-1.1,0-2.2,0-3.3c0-0.1-0.1-0.3-0.1-0.4c0.5,0,1,0,1.5,0
			c-0.4,0.3-0.2,0.6-0.2,0.9c0,0.7,0,1.4,0,2.1c0,0.1,0,0.2,0,0.3c0.2,0,0.3,0,0.5,0c0.6,0,1.3,0,1.9,0c0.2,0,0.4,0,0.4-0.2
			c0.1,0.1,0.1,1.2,0,1.5c-0.1-0.3-0.3-0.2-0.6-0.2c-1.1,0-2.2,0-3.3,0C67.3,37.6,67.2,37.6,67.1,37.6
			C67.2,37.6,67.1,37.6,67.1,37.6z"/>
		<path class="st0" d="M59.5,33.3c0.6,0,1.1,0,1.7,0c-0.2,0.2-0.1,0.3,0,0.4c0.2,0.3,0.4,0.7,0.7,1.1c0.3-0.4,0.5-0.8,0.8-1.2
			c0-0.1,0-0.2,0-0.3c0.4,0,0.9,0,1.4,0c0,0,0,0.1,0,0.1c-0.5,0.7-1,1.5-1.5,2.2c-0.1,0.1-0.1,0.2-0.1,0.3c0,0.4,0,0.7,0,1.1
			c0,0.2-0.1,0.4,0.2,0.6c-0.5,0-1,0-1.5,0c0.4-0.3,0.1-0.7,0.2-1.1c0.1-0.4-0.1-0.7-0.3-1c-0.3-0.5-0.7-1-1-1.5
			C59.9,33.8,59.7,33.6,59.5,33.3z"/>
		<path class="st0" d="M24.1,29.6c0-0.2,0-0.5,0-0.7c0-0.3,0-0.5-0.2-0.7c-0.2-0.2-0.1-0.7,0.1-0.9c0.3-0.2,0.7-0.2,0.9,0.1
			c0.3,0.3,0.3,0.7,0,0.9c-0.1,0.1-0.2,0.3-0.2,0.4c0,0.6,0,1.3,0,1.9c0,0.3-0.1,0.5-0.4,0.5c-0.2,0-0.4-0.2-0.4-0.5
			C24.1,30.2,24.1,29.9,24.1,29.6z"/>
		<path class="st0" d="M33.9,24c0-0.4,0.3-0.7,0.7-0.7c0.3,0,0.6,0.2,0.7,0.6c0,0.1,0.1,0.2,0.2,0.3c0.5,0.4,1.1,0.8,1.6,1.2
			c0.2,0.2,0.3,0.3,0.2,0.5c-0.1,0.2-0.4,0.3-0.6,0.1c-0.5-0.4-1.1-0.8-1.6-1.2c-0.1-0.1-0.2-0.1-0.4-0.1
			C34.3,24.7,33.9,24.4,33.9,24z"/>
		<path class="st0" d="M17.8,24.6c-0.1,0.1-0.2,0.1-0.3,0.2c-0.5,0.4-0.9,0.8-1.4,1.2c0,0-0.1,0.1-0.1,0.1c-0.2,0.2-0.4,0.2-0.6,0
			c-0.2-0.2-0.1-0.4,0.1-0.6c0.4-0.4,0.8-0.7,1.3-1.1c0.1-0.1,0.1-0.1,0.2-0.1c0.2-0.1,0.2-0.2,0.3-0.4c0-0.4,0.4-0.6,0.8-0.6
			c0.4,0,0.6,0.4,0.6,0.7C18.5,24.4,18.2,24.7,17.8,24.6z"/>
		<path class="st0" d="M16.5,20.6c0,0.5-0.4,0.8-0.9,0.7c-0.1,0-0.2,0-0.3,0c-0.6,0.3-1.2,0.6-1.8,0.9c-0.2,0.1-0.3,0.1-0.5,0
			c-0.2-0.2-0.2-0.5,0.1-0.6c0.6-0.3,1.2-0.6,1.8-0.9c0.1-0.1,0.2-0.2,0.2-0.3c0.1-0.3,0.4-0.5,0.8-0.5C16.3,20,16.5,20.3,16.5,20.6
			z"/>
		<path class="st0" d="M31.9,25.8c0.4,0,0.8,0.4,0.7,0.8c0,0.2,0,0.3,0.1,0.4c0.4,0.6,0.7,1.1,1.1,1.7c0.1,0.2,0.1,0.3,0,0.5
			c-0.1,0.1-0.3,0.2-0.4,0.1c-0.1,0-0.1-0.1-0.2-0.2c-0.4-0.6-0.7-1.1-1.1-1.7c-0.1-0.1-0.1-0.2-0.3-0.2c-0.3-0.1-0.6-0.4-0.5-0.8
			C31.2,26,31.5,25.8,31.9,25.8z"/>
		<path class="st0" d="M20.8,26c0.4,0,0.7,0.3,0.7,0.6c0,0.4-0.2,0.7-0.5,0.8c-0.1,0-0.2,0.1-0.3,0.2c-0.4,0.5-0.8,1.1-1.2,1.7
			c-0.1,0.2-0.3,0.3-0.5,0.2c-0.2-0.1-0.3-0.4-0.1-0.6c0.4-0.5,0.8-1.1,1.1-1.6c0.1-0.1,0.1-0.2,0.1-0.4C20.1,26.3,20.4,26,20.8,26z
			"/>
		<path class="st0" d="M28.9,27.6c0,0,0,0.2-0.1,0.2c-0.2,0.2-0.1,0.4-0.1,0.6c0.1,0.6,0.2,1.2,0.3,1.7c0.1,0.3,0,0.5-0.2,0.5
			c-0.2,0.1-0.4-0.1-0.5-0.3c-0.1-0.7-0.3-1.3-0.4-2c0-0.1-0.1-0.2-0.2-0.3c-0.3-0.2-0.4-0.5-0.2-0.8c0.1-0.3,0.5-0.5,0.8-0.4
			C28.7,27,28.9,27.2,28.9,27.6z"/>
	</g>
</g>
</svg>
