<?xml version="1.0" encoding="utf-8"?>
<!-- Generator: Adobe Illustrator 22.0.1, SVG Export Plug-In . SVG Version: 6.00 Build 0)  -->
<svg version="1.1" id="Layer_1" xmlns="http://www.w3.org/2000/svg" xmlns:xlink="http://www.w3.org/1999/xlink" x="0px" y="0px"
	 viewBox="0 0 198 134" style="enable-background:new 0 0 198 134;" xml:space="preserve">
<style type="text/css">
	.st0{fill:none;}
	.st1{fill:none;stroke:#2E2E2E;stroke-width:2.4;stroke-linecap:round;stroke-linejoin:round;stroke-miterlimit:22.9256;}
	.st2{fill:none;stroke:#2E2E2E;stroke-width:2.4;stroke-miterlimit:22.9256;}
</style>
<rect id="Rectangle_85" class="st0" width="198" height="134"/>
<g>
	<path class="st1" d="M152.9,75.3l8.4-8.4c14.5-14.5,7.3-34.1-4.4-46.7c-3.9-4.1-8.3-7.7-12.8-10.3c-5.9-3.3-24.6-8.2-36.7,3.6
		L82.1,38.7c-6.8,6.8,10.4,13.4,19.1,4.8l6.4-6.3c9.4-8.5,21.2,8.6,36-3.1"/>
	<path class="st1" d="M54.5,71.3l-8.4-8.4c-28-28,20.5-76,49-48.3l5.7,5.6"/>
	<path class="st1" d="M121.1,43.3l32.5,34.1c6.6,7-3.2,20.2-11.7,11.4l-15.3-15.7"/>
	<path class="st1" d="M113.3,83.7l16.8,17.2c6.7,6.9,20.3-3.3,11.8-12.1l-16.4-16.9"/>
	<path class="st1" d="M108.2,102.8l8.4,8.4c6.8,6.8,19.9-2.9,11.5-11.8"/>
	<path class="st2" d="M74.5,64.4l0.9,0.9c3,3,3,8,0,11L63.8,87.9c-3,3-8,3-11,0L51.9,87c-3-3-3-8,0-11l11.6-11.6
		C66.5,61.3,71.4,61.3,74.5,64.4L74.5,64.4z M94,69.7l0.9,0.9c3,3,3,8,0,11L76.4,100c-3,3-8,3-11,0l-0.9-0.9c-3-3-3-8,0-11L83,69.7
		C86,66.6,90.9,66.6,94,69.7L94,69.7z M101.5,86.9l0.9,0.9c3,3,3,8,0,11l-12.7,12.7c-3,3-8,3-11,0l-0.9-0.9c-3-3-3-8,0-11l12.7-12.7
		C93.5,83.9,98.5,83.9,101.5,86.9L101.5,86.9z M109.7,103.4l0.9,0.9c3,3,3,8,0,11l-7.8,7.8c-3,3-8,3-11,0l-0.9-0.9c-3-3-3-8,0-11
		l7.8-7.8C101.7,100.4,106.6,100.4,109.7,103.4L109.7,103.4z"/>
</g>
</svg>
