<?xml version="1.0" encoding="utf-8"?>
<!-- Generator: Adobe Illustrator 22.0.1, SVG Export Plug-In . SVG Version: 6.00 Build 0)  -->
<svg version="1.1" id="Layer_1" xmlns="http://www.w3.org/2000/svg" xmlns:xlink="http://www.w3.org/1999/xlink" x="0px" y="0px"
	 viewBox="0 0 198 134" style="enable-background:new 0 0 198 134;" xml:space="preserve">
<style type="text/css">
	.st0{fill:none;}
	.st1{fill:none;stroke:#2E2E2E;stroke-width:2.4;stroke-linecap:round;stroke-linejoin:round;stroke-miterlimit:22.9256;}
</style>
<rect id="Rectangle_85" class="st0" width="198" height="134"/>
<g>
	<polygon class="st1" points="47.9,14.8 150.6,14.8 150.6,87.9 47.9,87.9 47.9,14.8 	"/>
	<line class="st1" x1="39.5" y1="14.4" x2="159.1" y2="14.4"/>
	<line class="st1" x1="99.3" y1="87.9" x2="99.3" y2="119.8"/>
	<line class="st1" x1="99.3" y1="14.4" x2="99.3" y2="5.5"/>
	<line class="st1" x1="99.5" y1="104.4" x2="132.6" y2="125.3"/>
	<line class="st1" x1="99.1" y1="104.4" x2="66" y2="125.3"/>
	<path class="st1" d="M91.9,34.5h37.9 M68.8,32.2l4.8,6.3l5.5-7.2 M91.9,50.5h37.9 M68.8,48.2l4.8,6.3l5.5-7.2 M91.9,66.5h37.9
		 M68.8,64.2l4.8,6.3l5.5-7.2"/>
</g>
</svg>
