<?xml version="1.0" encoding="utf-8"?>
<!-- Generator: Adobe Illustrator 22.0.1, SVG Export Plug-In . SVG Version: 6.00 Build 0)  -->
<svg version="1.1" id="Layer_1" xmlns="http://www.w3.org/2000/svg" xmlns:xlink="http://www.w3.org/1999/xlink" x="0px" y="0px"
	 viewBox="0 0 130 50" style="enable-background:new 0 0 130 50;" xml:space="preserve">
<style type="text/css">
	.st0{fill:#130C0E;}
	.st1{fill:#FFD200;}
	.st2{fill-rule:evenodd;clip-rule:evenodd;fill:#FFD300;}
	.st3{fill:#FFD300;}
	.st4{fill-rule:evenodd;clip-rule:evenodd;fill:#231F20;}
	.st5{fill:#231F20;}
	.st6{fill:#FFCC05;}
</style>
<g>
	<g>
		<path class="st0" d="M0.4,17.1c0-3.8,3.1-6.8,6.8-6.8h115.6c3.8,0,6.8,3.1,6.8,6.8v15.8c0,3.8-3.1,6.8-6.8,6.8H7.2
			c-3.8,0-6.8-3.1-6.8-6.8V17.1z"/>
	</g>
	<g>
		<g>
			<path class="st1" d="M122.8,40.1H7.2c-4,0-7.2-3.2-7.2-7.2V17.1c0-4,3.2-7.2,7.2-7.2h115.6c4,0,7.2,3.2,7.2,7.2v15.8
				C130,36.9,126.8,40.1,122.8,40.1z M7.2,10.6c-3.6,0-6.5,2.9-6.5,6.5v15.8c0,3.6,2.9,6.5,6.5,6.5h115.6c3.6,0,6.5-2.9,6.5-6.5
				V17.1c0-3.6-2.9-6.5-6.5-6.5H7.2z"/>
		</g>
	</g>
	<g>
		<path class="st2" d="M25.6,23.9h4.7v12.6c0,0-0.7,1.2-2.5,1.2c-1.7,0-2.2-1.2-2.2-1.2V23.9z"/>
	</g>
	<g>
		<path class="st3" d="M7.5,20.9c0-1.2,1-2.2,2.2-2.2h109.9c1.2,0,2.2,1,2.2,2.2v7.6c0,1.2-1,2.2-2.2,2.2H9.7c-1.2,0-2.2-1-2.2-2.2
			V20.9z"/>
	</g>
	<g>
		<path class="st4" d="M15.2,29h5.2c2.4,0,3-0.1,3.6-0.7c0.5-0.6,0.7-1.5,0.7-3.7c0-1.4,0-2-0.2-2.6c-0.2-0.8-0.7-1.3-1.4-1.5
			c-0.6-0.2-0.9-0.2-2.7-0.2h-5.2V29z M17.4,26.8v-4.3h3c1.3,0,1.6,0.1,1.8,0.4c0.2,0.3,0.3,0.8,0.3,1.8c0,2-0.1,2.1-2.1,2.1H17.4z"
			/>
	</g>
	<g>
		<path class="st4" d="M30.6,26.1v0.4c0,1.2,0.2,1.7,0.7,2.1c0.5,0.4,1.4,0.5,3.6,0.5c2.1,0,3-0.1,3.5-0.3c0.7-0.3,1-1.1,1-2.6
			c0-1.2-0.2-1.8-0.7-2.2c-0.5-0.3-0.9-0.4-3.3-0.5c-1.5-0.1-2.1-0.1-2.3-0.2c-0.2-0.1-0.3-0.2-0.3-0.6c0-0.6,0.2-0.7,2-0.7
			c1.5,0,1.8,0,2,0.2c0.2,0.1,0.2,0.2,0.2,0.7h2.1c0-0.2,0-0.3,0-0.4c0-1-0.2-1.6-0.6-1.9c-0.5-0.4-1.3-0.5-3.3-0.5
			c-1.7,0-2.7,0.1-3.1,0.2c-1,0.3-1.4,1-1.4,2.6c0,1.9,0.5,2.4,2.3,2.5l0.6,0l1.2,0.1l1.7,0.1c0.7,0,0.9,0.1,0.9,0.7
			c0,0.8,0,0.8-2.3,0.8c-1.5,0-1.8,0-2-0.2c-0.2-0.1-0.2-0.3-0.2-0.8H30.6z"/>
	</g>
	<g>
		<path class="st4" d="M48,25.7c0,1.3,0,1.3-2.4,1.3c-2.3,0-2.3,0-2.3-2.2c0-1.3,0.1-1.8,0.3-2.1c0.2-0.2,0.6-0.3,2-0.3
			c1.4,0,2,0.1,2.2,0.2c0.1,0.1,0.2,0.2,0.2,0.8h2.2V23c0-1.4-0.2-2-0.8-2.4c-0.5-0.3-1.2-0.4-3.1-0.4c-3.7,0-4.5,0.2-4.9,1.4
			c-0.2,0.5-0.2,1.2-0.2,3.1c0,1.1,0,1.8,0.1,2.2c0.1,0.9,0.3,1.4,0.8,1.7c0.6,0.4,1.5,0.5,4.3,0.5c1.6,0,2.4-0.1,3-0.3
			c0.8-0.3,1.1-0.9,1.1-2.3c0-0.1,0-0.3,0-0.8H48z"/>
	</g>
	<g>
		<path class="st4" d="M56.7,20.3c-3,0-3.7,0.1-4.2,0.6c-0.5,0.5-0.7,1.4-0.7,3.8c0,2.5,0.2,3.4,0.7,3.9c0.5,0.5,1.2,0.6,4.2,0.6
			c3,0,3.6-0.1,4.2-0.6c0.5-0.5,0.7-1.4,0.7-3.9c0-2.5-0.2-3.3-0.7-3.8C60.4,20.3,59.7,20.3,56.7,20.3 M56.7,22.5c2,0,2.2,0,2.5,0.4
			c0.2,0.3,0.3,0.8,0.3,2.1c0,1-0.1,1.4-0.3,1.7c-0.3,0.3-0.6,0.3-2.4,0.3c-1.8,0-2.1,0-2.4-0.3C54.1,26.3,54,26,54,24.9
			c0-1.1,0-1.6,0.2-1.9C54.4,22.5,54.6,22.5,56.7,22.5"/>
	</g>
	<g>
		<polygon class="st4" points="62.9,20.4 66.5,29 69.8,29 73.3,20.4 70.9,20.4 68.3,26.8 67.9,26.8 65.3,20.4 		"/>
	</g>
	<g>
		<polygon class="st4" points="74.7,20.4 74.7,29 82.6,29 82.6,26.9 76.8,26.9 76.8,25.6 82.3,25.6 82.3,23.7 76.8,23.7 76.8,22.4 
			82.6,22.4 82.6,20.4 		"/>
	</g>
	<g>
		<path class="st4" d="M84.4,29h2.2v-2.2h3.1c0.9,0,1.1,0,1.2,0.2c0.2,0.2,0.2,0.5,0.2,1.5V29h2.1v-0.8c0-2-0.2-2.4-1.3-2.5
			c0.4-0.1,0.6-0.2,0.8-0.4c0.4-0.3,0.5-0.8,0.5-2.1c0-1.5-0.2-2.1-0.7-2.5c-0.5-0.3-0.5-0.3-2.9-0.3h-5.3V29z M86.5,24.7v-2.1h3.1
			c1,0,1,0,1.2,0.1c0.2,0.1,0.3,0.4,0.3,0.9c0,0.5-0.1,0.8-0.2,0.9c-0.2,0.1-0.2,0.1-1.2,0.2H86.5z"/>
	</g>
	<g>
		<polygon class="st4" points="95.1,20.4 95.1,29 103,29 103,26.9 97.2,26.9 97.2,25.6 102.7,25.6 102.7,23.7 97.2,23.7 97.2,22.4 
			103,22.4 103,20.4 		"/>
	</g>
	<g>
		<path class="st4" d="M104.8,29h2.2v-2.2h3.1c0.9,0,1.1,0,1.2,0.2c0.2,0.2,0.2,0.5,0.2,1.5V29h2.1v-0.8c0-2-0.1-2.4-1.3-2.5
			c0.4-0.1,0.6-0.2,0.8-0.4c0.4-0.3,0.5-0.8,0.5-2.1c0-1.5-0.2-2.1-0.7-2.5c-0.5-0.3-0.5-0.3-2.9-0.3h-5.3V29z M106.9,24.7v-2.1h3.1
			c1,0,1,0,1.2,0.1c0.2,0.1,0.3,0.4,0.3,0.9c0,0.5-0.1,0.8-0.2,0.9c-0.2,0.1-0.2,0.1-1.2,0.2H106.9z"/>
	</g>
	<g>
		<path class="st5" d="M26.3,24.8v-4.4l3.1,0v4L27,26.3l0.6,0c0,0,1-0.8,1.3-1c0.2-0.1,0.4-0.1,0.5-0.1v2.3L27,29.4l0.6,0
			c0,0,1-0.8,1.3-1c0.2-0.1,0.4-0.1,0.5-0.1v2.3L27,32.6l0.6,0c0,0,1-0.8,1.3-1c0.2-0.1,0.4-0.1,0.5-0.1v2.3L27,35.7l0.6,0
			c0,0,1-0.8,1.3-1c0.2-0.1,0.4-0.1,0.5-0.1v1.2c0,0.5-0.5,0.8-1.1,0.8h-1c-0.6,0-1.1-0.4-1.1-0.8V35l2.5-1.9l-0.6,0
			c0,0-1,0.8-1.3,1c-0.2,0.1-0.4,0.1-0.5,0.1v-2.3l2.5-1.9l-0.6,0c0,0-1,0.8-1.3,1c-0.2,0.1-0.4,0.1-0.5,0.1v-2.3l2.5-1.9l-0.6,0
			c0,0-1,0.8-1.3,1c-0.2,0.1-0.4,0.1-0.5,0.1v-2.3l2.5-1.9l-0.6,0c0,0-1,0.8-1.3,1C26.7,24.8,26.4,24.8,26.3,24.8"/>
	</g>
	<g>
		<path class="st4" d="M115.9,21.2v2.1h0.3v-0.9h0.5c0.5,0,0.5,0.2,0.5,0.5c0,0.3,0,0.3,0.1,0.4h0.3c0-0.1,0-0.1-0.1-0.5
			c0-0.3-0.1-0.4-0.4-0.5v0c0.3-0.1,0.4-0.3,0.4-0.5c0-0.6-0.6-0.6-0.7-0.6H115.9z M116.2,21.5h0.6c0.1,0,0.5,0,0.5,0.3
			c0,0.4-0.4,0.4-0.6,0.4h-0.5V21.5z M116.7,20.4c-1,0-1.8,0.8-1.8,1.8c0,1,0.8,1.8,1.8,1.8c1,0,1.8-0.8,1.8-1.8
			C118.5,21.3,117.7,20.4,116.7,20.4 M116.7,20.7c0.9,0,1.6,0.7,1.6,1.6c0,0.9-0.7,1.6-1.6,1.6c-0.9,0-1.6-0.7-1.6-1.6
			C115.1,21.4,115.8,20.7,116.7,20.7"/>
	</g>
	<g>
		<path class="st6" d="M37.7,33.4h2.3v0.4h-1.9V35h1.7v0.4h-1.7v1.3H40v0.4h-2.4V33.4z"/>
		<path class="st6" d="M42.3,35.2l-1.2-1.7h0.6l1,1.4l1-1.4h0.5l-1.2,1.7l1.3,1.9h-0.6l-1.1-1.6l-1.1,1.6H41L42.3,35.2z"/>
		<path class="st6" d="M48,34.2c-0.2-0.3-0.6-0.4-0.9-0.4c-0.8,0-1.4,0.7-1.4,1.5c0,0.8,0.6,1.5,1.4,1.5c0.4,0,0.8-0.2,1.1-0.5
			l0.3,0.3c-0.3,0.4-0.8,0.6-1.4,0.6c-1,0-1.9-0.8-1.9-1.9c0-1.1,0.8-1.9,1.9-1.9c0.5,0,1,0.2,1.3,0.6L48,34.2z"/>
		<path class="st6" d="M49.9,33.4h2.3v0.4h-1.9V35H52v0.4h-1.7v1.3h1.9v0.4h-2.4V33.4z"/>
		<path class="st6" d="M53.7,33.4h0.4v3.2h1.7v0.4h-2.1V33.4z"/>
		<path class="st6" d="M57,33.4h0.4v3.2h1.7v0.4H57V33.4z"/>
		<path class="st6" d="M60.4,33.4h2.3v0.4h-1.9V35h1.7v0.4h-1.7v1.3h1.9v0.4h-2.4V33.4z"/>
		<path class="st6" d="M64.2,33.4h0.5l2.1,3h0v-3h0.4v3.6h-0.5l-2.1-3h0v3h-0.4V33.4z"/>
		<path class="st6" d="M71.5,34.2c-0.2-0.3-0.6-0.4-0.9-0.4c-0.8,0-1.4,0.7-1.4,1.5c0,0.8,0.6,1.5,1.4,1.5c0.4,0,0.8-0.2,1.1-0.5
			l0.3,0.3c-0.3,0.4-0.8,0.6-1.4,0.6c-1,0-1.9-0.8-1.9-1.9c0-1.1,0.8-1.9,1.9-1.9c0.5,0,1,0.2,1.3,0.6L71.5,34.2z"/>
		<path class="st6" d="M73.3,33.4h2.3v0.4h-1.9V35h1.7v0.4h-1.7v1.3h1.9v0.4h-2.4V33.4z"/>
		<path class="st6" d="M81.1,34.1c-0.1-0.2-0.4-0.3-0.7-0.3c-0.4,0-0.8,0.2-0.8,0.6c0,0.3,0.2,0.5,0.8,0.7c0.6,0.2,1.1,0.4,1.1,1.1
			c0,0.7-0.6,1.1-1.3,1.1c-0.4,0-0.9-0.1-1.1-0.5l0.4-0.3c0.2,0.3,0.5,0.4,0.8,0.4c0.4,0,0.8-0.2,0.8-0.6c0-0.4-0.3-0.5-1-0.7
			c-0.5-0.2-0.9-0.4-0.9-1c0-0.7,0.6-1,1.2-1c0.4,0,0.8,0.1,1,0.4L81.1,34.1z"/>
		<path class="st6" d="M83,33.4h0.4v3.6H83V33.4z"/>
		<path class="st6" d="M85.1,33.4h0.5l2.1,3h0v-3h0.4v3.6h-0.5l-2.1-3h0v3h-0.4V33.4z"/>
		<path class="st6" d="M92.4,34.2c-0.2-0.3-0.6-0.4-0.9-0.4c-0.8,0-1.4,0.7-1.4,1.5c0,0.8,0.6,1.5,1.4,1.5c0.4,0,0.8-0.2,1.1-0.5
			l0.3,0.3c-0.3,0.4-0.8,0.6-1.4,0.6c-1,0-1.9-0.8-1.9-1.9c0-1.1,0.8-1.9,1.9-1.9c0.5,0,1,0.2,1.3,0.6L92.4,34.2z"/>
		<path class="st6" d="M94.2,33.4h2.3v0.4h-1.9V35h1.7v0.4h-1.7v1.3h1.9v0.4h-2.4V33.4z"/>
		<path class="st6" d="M101.6,37.1h-0.4V34h0l-0.7,0.6l-0.3-0.3l1-0.8h0.4V37.1z"/>
		<path class="st6" d="M105.2,35.6L105.2,35.6c-0.1,0.1-0.3,0.1-0.5,0.1c-0.6,0-1.1-0.5-1.1-1.1c0-0.7,0.5-1.1,1.2-1.1
			c0.7,0,1.2,0.4,1.2,1.1c0,0.4-0.1,0.7-0.3,1l-1,1.5h-0.5L105.2,35.6z M105.6,34.5c0-0.5-0.3-0.8-0.8-0.8c-0.4,0-0.8,0.3-0.8,0.8
			c0,0.5,0.3,0.8,0.8,0.8C105.3,35.3,105.6,35,105.6,34.5z"/>
		<path class="st6" d="M108.9,35.6L108.9,35.6c-0.1,0.1-0.3,0.1-0.5,0.1c-0.6,0-1.1-0.5-1.1-1.1c0-0.7,0.5-1.1,1.2-1.1
			c0.7,0,1.2,0.4,1.2,1.1c0,0.4-0.1,0.7-0.3,1l-1,1.5h-0.5L108.9,35.6z M109.3,34.5c0-0.5-0.3-0.8-0.8-0.8c-0.4,0-0.8,0.3-0.8,0.8
			c0,0.5,0.3,0.8,0.8,0.8C108.9,35.3,109.3,35,109.3,34.5z"/>
		<path class="st6" d="M111.7,35h0.1c0.4,0,0.8-0.1,0.8-0.6c0-0.4-0.3-0.6-0.6-0.6c-0.3,0-0.5,0.1-0.7,0.4L111,34
			c0.2-0.4,0.6-0.6,1.1-0.6c0.6,0,1.1,0.3,1.1,1c0,0.4-0.3,0.7-0.6,0.8v0c0.5,0.1,0.7,0.5,0.7,0.9c0,0.7-0.6,1.1-1.2,1.1
			c-0.6,0-1-0.2-1.2-0.8l0.4-0.1c0.1,0.4,0.3,0.5,0.7,0.5c0.4,0,0.7-0.3,0.7-0.7c0-0.5-0.5-0.7-0.9-0.7h-0.1V35z"/>
	</g>
</g>
</svg>
