<?xml version="1.0" encoding="utf-8"?>
<!-- Generator: Adobe Illustrator 22.0.1, SVG Export Plug-In . SVG Version: 6.00 Build 0)  -->
<svg version="1.1" id="Layer_1" xmlns="http://www.w3.org/2000/svg" xmlns:xlink="http://www.w3.org/1999/xlink" x="0px" y="0px"
	 viewBox="0 0 130 50" style="enable-background:new 0 0 130 50;" xml:space="preserve">
<style type="text/css">
	.st0{fill:#023282;}
	.st1{fill:#BFC7D8;}
</style>
<g>
	<rect y="11.5" class="st0" width="7.7" height="27.1"/>
	<polygon class="st0" points="26.4,28.9 21.3,11.5 10.3,11.5 10.3,38.5 17.8,38.5 17.8,19.8 23.3,38.5 29.3,38.5 34.9,19.6 
		34.9,38.5 42.4,38.5 42.4,11.5 31.5,11.5 	"/>
	<path class="st0" d="M56.6,31.7h-3.9V18.3h3.9c4.1,0,6.3,2.6,6.3,6.7C62.9,29.2,60.7,31.7,56.6,31.7 M56.6,11.5H45v27.1h11.6
		c9.3,0,14.2-5.9,14.2-13.5S65.9,11.5,56.6,11.5"/>
	<polygon class="st0" points="72.1,38.5 93.9,38.5 93.9,31.7 79.8,31.7 79.8,28 90.2,28 90.2,22 79.8,22 79.8,18.3 93.9,18.3 
		93.9,11.5 72.1,11.5 	"/>
	<polygon class="st0" points="93.9,38.5 120.3,6.9 130,6.9 103.6,38.5 	"/>
	<polygon class="st1" points="110.9,31.8 120.3,43.1 130,43.1 115.7,26 	"/>
	<polygon class="st1" points="103.6,11.5 93.9,11.5 104.4,24 109.2,18.2 	"/>
</g>
</svg>
