<?xml version="1.0" encoding="utf-8"?>
<!-- Generator: Adobe Illustrator 22.0.1, SVG Export Plug-In . SVG Version: 6.00 Build 0)  -->
<svg version="1.1" id="Layer_1" xmlns="http://www.w3.org/2000/svg" xmlns:xlink="http://www.w3.org/1999/xlink" x="0px" y="0px"
	 viewBox="0 0 1074 435.4" style="enable-background:new 0 0 1074 435.4;" xml:space="preserve">
<style type="text/css">
	.st0{fill:#FFFFFF;}
	.st1{fill-rule:evenodd;clip-rule:evenodd;fill:url(#SVGID_1_);}
</style>
<path class="st0" d="M783.2,246.8c0-13.4,0-26.9,0-40.6c8,0,63.7,0,71.8,0c0-2.3,0-4.3,0-6.7c-3.9,0-67.6-0.1-71.7-0.1
	c0-5.8,0-11.4,0-17.2c0.8-0.1,48.1,0,70.9,0c9.3,0,15.8,6.6,16,16c0,2.3-0.1,4.7,0,7c0.2,4-1.5,6.8-5.1,8.5
	c-0.4,0.2-0.8,0.5-1.5,0.9c1.2,0.6,2.1,0.9,2.9,1.4c2.4,1.3,3.7,3.4,3.7,6.2c0,3.1,0.1,6.1,0,9.2c-0.4,8.7-7.1,15.4-15.8,15.4
	C828.8,246.8,784.1,246.9,783.2,246.8z M797.4,229.4c19.3,0,38.4,0,57.5,0c0-2.7,0-6.9,0-6.9l-57.5,0
	C797.4,222.4,797.4,226.8,797.4,229.4z"/>
<path class="st0" d="M593.8,206.9c0,9.3,0,14.1,0,26.9c-0.5,7-8.4,12.8-15.8,12.9c-16.3,0-41.8,0-54.9,0c-7.4,0-14.5-5.1-16.3-11.9
	c0-19,0-22.5,0-35.3c0-7.1,3-12.4,9.3-15.5c2-1,4.4-1.7,6.7-1.7c22.9-0.1,70,0,71,0.1c0,5.6,0,11.1,0,17c-1.2,0-40,0-58.2,0
	c-2.2,0-4.5,0.2-6.7,0.6c-5.2,1.1-7.8,4.4-7.8,9.7c0,2.8,0,5.7,0,8.5c0,5.4,2.6,8.8,7.9,9.9c1.5,0.3,3,0.6,4.5,0.6
	c11.3,0,22.6,0.1,33.9,0c2.7,0,5.5-0.4,7.9-1.8c1.7-1,3.1-2.2,3.7-4.7c-15.3-0.1-30.3,0-45.4-0.1c0-5.2,0-9.9,0-15.1
	C553.6,206.9,573.5,206.9,593.8,206.9z"/>
<path class="st0" d="M734.3,182.2c9.1,0,18.1,0.1,27.2,0c6.5-0.1,14.1,5.3,15.8,11.8c0.4,1.5,0.6,3,0.6,4.5
	c0.1,10.7-0.1,21.4,0.1,32c0.2,9.8-9.1,16.4-16.3,16.4c-14.6,0-29.3,0-43.9,0c-3.2,0-6.3,0-9.5,0c-10.2,0-17.4-6.3-17.7-16.5
	c-0.3-11.2,0.1-22.4,0.2-33.5c0.1-7.8,8.7-14.7,15.8-14.6C715.8,182.3,725,182.2,734.3,182.2C734.3,182.2,734.3,182.2,734.3,182.2z
	 M734.2,228.6c5.2,0,10.4,0.1,15.6,0c1.9,0,3.9-0.2,5.7-0.6c5.4-1.1,8.1-4.7,8.1-10.1c0-2.5,0-5.1,0-7.6c0-5.4-3.1-9.2-8.4-10.3
	c-1.9-0.4-3.8-0.6-5.7-0.6c-10.2-0.1-20.3-0.1-30.5,0c-2.1,0-4.3,0.2-6.4,0.7c-5,1.1-7.6,4.4-7.6,9.5c0,3.1,0.1,6.1,0,9.2
	c-0.1,4.1,1.8,7,5.4,8.3c2.6,1,5.5,1.4,8.3,1.6C723.8,228.8,729,228.6,734.2,228.6z"/>
<path class="st0" d="M303.7,182.3c4.7,0,9.4,0,14.2,0c0.1,1.1,0,25,0,35.9c0,5.3,2.6,8.6,7.7,9.8c1.5,0.3,5.1,0.6,6.6,0.6
	c11.5,0.1,20.9,0,32.4,0c2.7,0,5.3-0.6,7.6-2c3-1.8,4.6-4.3,4.6-8c-0.1-10.9,0-34.9,0-36.2c4.7,0,9.4,0,14.1,0
	c0.1,1-0.2,32.8,0,47.7c0.1,9.7-8.5,16.6-16.5,16.6c-10.4,0-46.8,0.1-54.6,0c-7.2-0.1-13.7-5.2-15.6-12c-0.5-1.7-0.6-3.6-0.6-5.4
	C303.6,214.5,303.6,183.4,303.7,182.3z"/>
<path class="st0" d="M483.1,246.6h-14c0,0-0.1-25.3-0.1-36.3c0-7.6-3.3-10.7-13.5-10.7c-10.2,0-45.4,0-45.4,0v47.1l-13.9,0.1
	c0,0,0-42.8,0-64.2c1-0.1,47.8,0,70.3,0c9.3,0,16.6,7.1,16.6,16.5c0,14.8,0,29.5,0.1,44.3C483.1,244.2,483.1,246.6,483.1,246.6z"/>
<path class="st0" d="M1053.8,228.6c0,6.2,0,12.3,0,18.2c-1,0.1-48.2-0.1-70.9,0c-7.1,0-16.2-6.5-16.2-14.8c0-1.7-0.3-3.4-0.3-5.2
	c0-13.5,0-44.6,0-44.6l14.4,0c0,0,0.3,25.1,0,35.8c-0.2,6,4.1,9.3,8.3,10c2.1,0.3,4.2,0.6,6.4,0.6
	C1013.7,228.6,1052.4,228.6,1053.8,228.6z"/>
<path class="st0" d="M686.2,228.6c0,6,0,12.1,0,18.1c-0.7,0.1-45.5,0-71.2,0c-7.4,0-15.6-6.8-15.7-14.6c0-1.8-0.2-3.7-0.2-5.5
	c0-13.4,0.1-26.9,0.1-40.3c0-1.2,0-3.8,0-3.8l14.2,0c0,0,0,2.1,0,3.2c0,10.8,0,21.6,0,32.4c0,5.6,2.7,8.9,8.3,9.9
	c2.1,0.4,4.2,0.6,6.4,0.6C635.8,228.6,684.7,228.6,686.2,228.6z"/>
<path class="st0" d="M901.8,199.4c0.5-0.9,0.7-1.8,1.1-2.3c2.4-4.2,5-8.4,7.3-12.7c1-1.8,4.1-2.3,4.1-2.3l9.2,0c0,0,3.1,0.6,4.1,2.3
	c8,14.3,16.1,28.5,24.1,42.8c3.3,5.7,6.5,11.5,9.8,17.2c0.3,0.6,0.5,1.2,0.9,2.1c-0.9,0.1-1.6,0-2.3,0c-3.4,0-6.7-0.1-10.1,0
	c-1.6,0.1-2.6-0.2-3.4-1.6c-4-6.7-8.2-13.3-12.3-20c-0.6-0.9-1.2-1.9-1.8-2.9c-9,0-17.9,0-27.1,0c-2.6,4.2-5.3,8.5-8,12.8
	c-2.1,3.4-4.2,6.7-6.3,10.1c-0.8,1.4-1.7,1.7-3.4,1.6c-3.4-0.1-11.4,0.1-12.3,0c0.4-0.9,0.6-1.5,1-2.1c6.6-11.7,13.3-23.3,19.8-35
	c1.1-2,2.4-2.6,4.6-2.6c6.5,0.1,13,0,19.5,0c1,0,2,0,3.6,0c-1.4-2.7-2.7-4.9-4.3-6.9c-0.4-0.5-1.5-0.5-2.2-0.5
	C913.2,199.4,903.1,199.5,901.8,199.4z"/>
<path class="st0" d="M487.8,199.1c0-5.6,0-11.1,0-16.7c4.6,0,9,0,13.6,0c0,5.6,0,11,0,16.7C497,199.1,492.6,199.1,487.8,199.1z"/>
<rect x="487.8" y="206.4" class="st0" width="13.6" height="40.1"/>
<g>
	<g>
		<path class="st0" d="M481.1,276.7v33.9h-5.5v-33.9H481.1z"/>
		<path class="st0" d="M520.9,310.6h-5.5l-16.5-25v25h-5.5v-33.8h5.5l16.5,25.1v-25.1h5.5V310.6z"/>
		<path class="st0" d="M560.3,302.5c-1.4,2.5-3.4,4.5-6.1,5.9c-2.7,1.4-5.9,2.1-9.6,2.1h-11.3v-33.9h11.3c3.7,0,6.9,0.7,9.6,2.1
			c2.7,1.4,4.7,3.4,6.1,5.9c1.4,2.5,2.1,5.5,2.1,8.9C562.4,297,561.7,300,560.3,302.5z M553.6,302.4c2.2-2.1,3.3-5.1,3.3-8.9
			c0-3.8-1.1-6.8-3.3-8.9c-2.2-2.1-5.3-3.2-9.4-3.2h-5.4v24.1h5.4C548.3,305.6,551.4,304.6,553.6,302.4z"/>
		<path class="st0" d="M578.9,276.7v20.1c0,3,0.7,5.2,2,6.7c1.3,1.5,3.2,2.2,5.6,2.2c2.4,0,4.2-0.7,5.5-2.2c1.3-1.5,2-3.7,2-6.7
			v-20.1h5.5v20.1c0,4.6-1.2,8.2-3.6,10.5c-2.4,2.4-5.6,3.6-9.5,3.6c-3.9,0-7-1.2-9.4-3.6c-2.4-2.4-3.6-5.9-3.6-10.5v-20.1H578.9z"
			/>
		<path class="st0" d="M632.7,306.2c-0.8,1.4-2,2.6-3.6,3.4c-1.6,0.9-3.6,1.3-6,1.3c-2.3,0-4.4-0.4-6.2-1.2c-1.8-0.8-3.3-2-4.4-3.4
			c-1.1-1.5-1.7-3.2-1.9-5.1h5.9c0.2,1.5,0.8,2.7,1.9,3.8c1.1,1.1,2.6,1.6,4.4,1.6c1.7,0,3-0.4,3.9-1.3c0.9-0.9,1.4-2,1.4-3.5
			c0-1.2-0.3-2.2-1-3s-1.5-1.4-2.5-1.8s-2.4-1-4.1-1.5c-2.1-0.7-3.8-1.3-5.2-2c-1.3-0.7-2.5-1.6-3.4-2.9c-0.9-1.3-1.4-3-1.4-5
			c0-1.8,0.4-3.4,1.3-4.8c0.9-1.4,2.2-2.4,3.8-3.2c1.7-0.8,3.6-1.1,5.8-1.1c3.5,0,6.2,0.8,8.2,2.5c2,1.7,3.2,3.8,3.5,6.5h-5.9
			c-0.2-1.3-0.8-2.4-1.8-3.3c-1-0.9-2.3-1.4-4-1.4c-1.5,0-2.8,0.4-3.7,1.2c-0.9,0.8-1.4,1.9-1.4,3.4c0,1.2,0.3,2.1,1,2.9
			c0.6,0.8,1.4,1.3,2.4,1.8c1,0.4,2.3,0.9,4,1.5c2.1,0.7,3.9,1.4,5.3,2c1.4,0.7,2.5,1.7,3.5,3c0.9,1.3,1.4,3,1.4,5.2
			C633.9,303.2,633.5,304.7,632.7,306.2z"/>
		<path class="st0" d="M666.9,276.7v4.4h-9.5v29.5H652v-29.5h-9.4v-4.4H666.9z"/>
		<path class="st0" d="M694.6,310.6l-8.4-13.5h-3.9v13.5h-5.5v-33.9h12c3.9,0,6.8,0.9,8.8,2.8c2,1.9,3,4.4,3,7.5
			c0,2.7-0.7,4.8-2.2,6.5c-1.5,1.7-3.6,2.8-6.5,3.3l8.9,13.8H694.6z M682.2,293.1h6c4.4,0,6.6-2,6.6-5.9c0-1.9-0.5-3.3-1.6-4.3
			c-1.1-1-2.7-1.6-5-1.6h-6V293.1z"/>
		<path class="st0" d="M716.7,276.7v33.9h-5.5v-33.9H716.7z"/>
		<path class="st0" d="M749.3,303.2H735l-2.6,7.3h-5.9l12.5-33.4h6.3l12.4,33.4h-5.9L749.3,303.2z M747.8,299l-5.6-15.8l-5.6,15.8
			H747.8z"/>
		<path class="st0" d="M773.1,306.3h11.7v4.3h-17.2v-33.9h5.5V306.3z"/>
		<path class="st0" d="M833.6,276.7v4.4h-9.5v29.5h-5.5v-29.5h-9.4v-4.4H833.6z"/>
		<path class="st0" d="M861.2,310.6l-8.4-13.5h-3.9v13.5h-5.5v-33.9h12c3.9,0,6.8,0.9,8.8,2.8c2,1.9,3,4.4,3,7.5
			c0,2.7-0.7,4.8-2.2,6.5c-1.5,1.7-3.6,2.8-6.5,3.3l8.9,13.8H861.2z M848.9,293.1h6c4.4,0,6.6-2,6.6-5.9c0-1.9-0.5-3.3-1.6-4.3
			c-1.1-1-2.7-1.6-5-1.6h-6V293.1z"/>
		<path class="st0" d="M898.1,303.2h-14.3l-2.6,7.3h-5.9l12.5-33.4h6.3l12.4,33.4h-5.9L898.1,303.2z M896.6,299l-5.6-15.8l-5.6,15.8
			H896.6z"/>
		<path class="st0" d="M943.4,302.5c-1.4,2.5-3.4,4.5-6.1,5.9c-2.7,1.4-5.9,2.1-9.6,2.1h-11.3v-33.9h11.3c3.7,0,6.9,0.7,9.6,2.1
			c2.7,1.4,4.7,3.4,6.1,5.9c1.4,2.5,2.1,5.5,2.1,8.9C945.5,297,944.8,300,943.4,302.5z M936.6,302.4c2.2-2.1,3.3-5.1,3.3-8.9
			c0-3.8-1.1-6.8-3.3-8.9c-2.2-2.1-5.3-3.2-9.4-3.2h-5.4v24.1h5.4C931.3,305.6,934.5,304.6,936.6,302.4z"/>
		<path class="st0" d="M962.2,276.7v33.9h-5.5v-33.9H962.2z"/>
		<path class="st0" d="M1002,310.6h-5.5l-16.5-25v25h-5.5v-33.8h5.5l16.5,25.1v-25.1h5.5V310.6z"/>
		<path class="st0" d="M1040,279.4c2.7,2,4.5,4.7,5.3,8.1h-5.8c-0.7-1.8-1.9-3.3-3.6-4.4s-3.7-1.6-6-1.6c-2.1,0-4,0.5-5.7,1.5
			c-1.7,1-3,2.4-3.9,4.2c-0.9,1.8-1.4,4-1.4,6.4c0,2.6,0.5,4.8,1.4,6.7c1,1.9,2.3,3.3,4.1,4.2c1.7,1,3.8,1.5,6.1,1.5
			c2.8,0,5.2-0.9,7.2-2.6c2-1.7,3.2-4.1,3.6-7.2h-12.4v-4h17v5.2c-0.4,2.5-1.3,4.8-2.7,6.8c-1.4,2-3.2,3.7-5.5,4.9
			c-2.3,1.2-4.9,1.8-7.8,1.8c-3.3,0-6.2-0.7-8.7-2.2c-2.5-1.5-4.5-3.5-5.9-6.1c-1.4-2.6-2.1-5.6-2.1-9c0-3.4,0.7-6.3,2.1-9
			c1.4-2.6,3.3-4.6,5.8-6.1c2.5-1.5,5.4-2.2,8.7-2.2C1033.9,276.4,1037.3,277.4,1040,279.4z"/>
	</g>
</g>
<g>
	<linearGradient id="SVGID_1_" gradientUnits="userSpaceOnUse" x1="234.1764" y1="34.0183" x2="234.1764" y2="422.0552">
		<stop  offset="0" style="stop-color:#FAC221"/>
		<stop  offset="1" style="stop-color:#FAA335"/>
	</linearGradient>
	<path class="st1" d="M393.8,142c-19-28.8-47.9-46.7-86.9-55.6c-15.7-3.6-37.6-1.5-51,2.1c-41.6,11.4-66.5,35.1-81.7,72.9
		c-4.7,11.6-10.3,34.8-7,52.3c5.5,29.2,13.2,49.5,28,68.7c5.6,5.9,11.1,11.7,16.7,17.6c3.1,2.5,6.8,4.4,8.8,7.9
		c-0.2,0.3-0.4,0.6-0.6,0.9c-11.2-1.7-30.9-18.5-38.3-25.5c-17.3-16.4-31.4-36.7-38.6-63.2c-15.1-55.8,11.6-107.7,42.2-131.6
		c14.6-11.4,31-20,51-26.1c64.6-19.9,124.8,18.1,150.1,53.2c7.1,9.9,21.6,31.6,21.6,47.4c-0.7-0.2-1.4-0.4-2.1-0.6
		C403.3,154.8,397.9,148.3,393.8,142z M326.9,36.3c-24.3-7.6-62.8-10.9-90.8-3.9C175.8,47.2,130.3,81.8,110,136.6
		c-10.8,29.2-15.5,69.8-4.6,103.3c6.1,18.8,14.9,35.6,25.5,50.1c27.6,37.7,67.8,59.1,124,68.7c14,2.4,32.4,1.7,45.6-0.9
		c5.1-1,14.4-4.6,19.1-2.4c0,0.3,0,0.6,0,0.9c-30.8,19.3-96.1,21.1-134,7.3c-58.6-21.4-100-57.3-119.7-117.3
		c-9.5-29-12.7-71.2-3-103.3C81.4,81.7,122.1,39.6,180.5,18.4c11.8-4.3,24.8-6.3,38.3-9.1c7.2-0.5,14.4-1,21.6-1.5
		c37.7-0.7,69.8,9.7,94.2,23.7c5.4,3.1,21.7,10.7,23.4,16.1c-0.6,0-1.2,0-1.8,0C346.4,43.8,336.7,40,326.9,36.3z M39.8,140.2
		c-4.3,22.6,0.1,58.8,4.6,77.2c19.4,80.3,70.3,136.7,144.6,162.2c27.3,9.4,71.8,15.9,106.3,7.6c16.3-3.9,31.5-7.9,45.6-14
		c31.8-13.8,61.3-35.7,81.4-61.4c6.2-8.5,12.4-17,18.5-25.5c2.5-3.7,3.8-9.5,7.6-11.8c0.3,0.3,0.6,0.6,0.9,0.9
		c-22.5,68.5-73.3,119-141.9,141.3c-11.8,3.8-24.3,6-37.4,8.5c-32.9,6.2-71.5-0.1-96.9-8.5c-68.2-22.6-113.9-67.3-140.4-131.6
		C9.3,228,17.1,144.7,45.9,99.8c0.4,0.2,0.8,0.4,1.2,0.6c0.1,4.8-2.1,10.4-3.3,15.2C42.4,123.8,41.1,132,39.8,140.2z"/>
</g>
</svg>
